<svg xmlns="http://www.w3.org/2000/svg" width="1200" height="630" viewBox="0 0 1200 630">
  <defs>
    <radialGradient id="bg" cx="20%" cy="80%" r="70%">
      <stop offset="0%" stop-color="#f97316" stop-opacity="0.35"/>
      <stop offset="100%" stop-color="#f97316" stop-opacity="0"/>
    </radialGradient>
  </defs>
  <rect width="1200" height="630" fill="#0a0a0c"/>
  <rect width="1200" height="630" fill="url(#bg)"/>
  <!-- Logo mark -->
  <rect x="44" y="40" width="60" height="60" rx="13" fill="#ffffff"/>
  <circle cx="74" cy="70" r="14" fill="#0a0a0c"/>
  <!-- Logo text -->
  <text x="118" y="80" font-family="-apple-system,BlinkMacSystemFont,'Segoe UI',sans-serif" font-size="28" font-weight="600" fill="#ffffff" opacity="0.9" letter-spacing="-0.5">Clawbrowser</text>
  <!-- Decorative: ascending bars -->
  <rect x="340" y="400" width="60" height="80" rx="4" fill="#f97316" opacity="0.25"/>
  <rect x="430" y="350" width="60" height="130" rx="4" fill="#f97316" opacity="0.35"/>
  <rect x="520" y="290" width="60" height="190" rx="4" fill="#f97316" opacity="0.45"/>
  <rect x="610" y="240" width="60" height="240" rx="4" fill="#fb923c" opacity="0.5"/>
  <rect x="700" y="190" width="60" height="290" rx="4" fill="#fb923c" opacity="0.55"/>
  <rect x="790" y="150" width="60" height="330" rx="4" fill="#fdba74" opacity="0.45"/>
  <rect x="880" y="120" width="60" height="360" rx="4" fill="#fdba74" opacity="0.35"/>
  <!-- Grid -->
  <line x1="0" y1="210" x2="1200" y2="210" stroke="#ffffff" stroke-width="0.5" opacity="0.04"/>
  <line x1="0" y1="420" x2="1200" y2="420" stroke="#ffffff" stroke-width="0.5" opacity="0.04"/>
  <line x1="400" y1="0" x2="400" y2="630" stroke="#ffffff" stroke-width="0.5" opacity="0.04"/>
  <line x1="800" y1="0" x2="800" y2="630" stroke="#ffffff" stroke-width="0.5" opacity="0.04"/>
</svg>
