<svg xmlns="http://www.w3.org/2000/svg" width="1200" height="630" viewBox="0 0 1200 630">
  <defs>
    <radialGradient id="bg" cx="15%" cy="20%" r="70%">
      <stop offset="0%" stop-color="#00b7fa" stop-opacity="0.35"/>
      <stop offset="100%" stop-color="#00b7fa" stop-opacity="0"/>
    </radialGradient>
  </defs>
  <rect width="1200" height="630" fill="#0a0a0c"/>
  <rect width="1200" height="630" fill="url(#bg)"/>
  <!-- Logo mark -->
  <rect x="44" y="40" width="60" height="60" rx="13" fill="#ffffff"/>
  <circle cx="74" cy="70" r="14" fill="#0a0a0c"/>
  <!-- Logo text -->
  <text x="118" y="80" font-family="-apple-system,BlinkMacSystemFont,'Segoe UI',sans-serif" font-size="28" font-weight="600" fill="#ffffff" opacity="0.9" letter-spacing="-0.5">Clawbrowser</text>
  <!-- Decorative: connected nodes (automation flow) -->
  <circle cx="360" cy="315" r="18" fill="none" stroke="#00b7fa" stroke-width="2" opacity="0.6"/>
  <circle cx="540" cy="245" r="14" fill="none" stroke="#00b7fa" stroke-width="2" opacity="0.45"/>
  <circle cx="720" cy="340" r="22" fill="none" stroke="#00b7fa" stroke-width="2" opacity="0.55"/>
  <circle cx="880" cy="270" r="16" fill="none" stroke="#00b7fa" stroke-width="2" opacity="0.4"/>
  <line x1="378" y1="315" x2="526" y2="252" stroke="#00b7fa" stroke-width="1.5" opacity="0.3"/>
  <line x1="554" y1="252" x2="698" y2="332" stroke="#00b7fa" stroke-width="1.5" opacity="0.3"/>
  <line x1="742" y1="332" x2="864" y2="276" stroke="#00b7fa" stroke-width="1.5" opacity="0.3"/>
  <!-- Dot accents -->
  <circle cx="360" cy="315" r="5" fill="#00b7fa" opacity="0.7"/>
  <circle cx="540" cy="245" r="4" fill="#00b7fa" opacity="0.6"/>
  <circle cx="720" cy="340" r="6" fill="#00b7fa" opacity="0.7"/>
  <circle cx="880" cy="270" r="4" fill="#00b7fa" opacity="0.5"/>
  <!-- Subtle grid lines -->
  <line x1="0" y1="210" x2="1200" y2="210" stroke="#ffffff" stroke-width="0.5" opacity="0.04"/>
  <line x1="0" y1="420" x2="1200" y2="420" stroke="#ffffff" stroke-width="0.5" opacity="0.04"/>
  <line x1="400" y1="0" x2="400" y2="630" stroke="#ffffff" stroke-width="0.5" opacity="0.04"/>
  <line x1="800" y1="0" x2="800" y2="630" stroke="#ffffff" stroke-width="0.5" opacity="0.04"/>
</svg>
