<svg xmlns="http://www.w3.org/2000/svg" width="1200" height="630" viewBox="0 0 1200 630">
  <defs>
    <radialGradient id="bg" cx="50%" cy="10%" r="75%">
      <stop offset="0%" stop-color="#10b981" stop-opacity="0.3"/>
      <stop offset="100%" stop-color="#10b981" stop-opacity="0"/>
    </radialGradient>
  </defs>
  <rect width="1200" height="630" fill="#0a0a0c"/>
  <rect width="1200" height="630" fill="url(#bg)"/>
  <!-- Logo mark -->
  <rect x="48" y="44" width="40" height="40" rx="9" fill="#ffffff"/>
  <circle cx="68" cy="64" r="9" fill="#0a0a0c"/>
  <!-- Logo text -->
  <text x="100" y="72" font-family="-apple-system,BlinkMacSystemFont,'Segoe UI',sans-serif" font-size="20" font-weight="600" fill="#ffffff" opacity="0.9" letter-spacing="-0.3">Clawbrowser</text>
  <!-- Decorative: neural network nodes -->
  <!-- Left column -->
  <circle cx="350" cy="220" r="12" fill="none" stroke="#10b981" stroke-width="1.5" opacity="0.6"/>
  <circle cx="350" cy="315" r="12" fill="none" stroke="#10b981" stroke-width="1.5" opacity="0.6"/>
  <circle cx="350" cy="410" r="12" fill="none" stroke="#10b981" stroke-width="1.5" opacity="0.6"/>
  <!-- Middle column -->
  <circle cx="600" cy="180" r="14" fill="none" stroke="#34d399" stroke-width="2" opacity="0.65"/>
  <circle cx="600" cy="315" r="16" fill="none" stroke="#34d399" stroke-width="2" opacity="0.7"/>
  <circle cx="600" cy="450" r="14" fill="none" stroke="#34d399" stroke-width="2" opacity="0.65"/>
  <!-- Right column -->
  <circle cx="850" cy="250" r="12" fill="none" stroke="#10b981" stroke-width="1.5" opacity="0.6"/>
  <circle cx="850" cy="380" r="12" fill="none" stroke="#10b981" stroke-width="1.5" opacity="0.6"/>
  <!-- Connections -->
  <line x1="362" y1="220" x2="586" y2="188" stroke="#10b981" stroke-width="1" opacity="0.25"/>
  <line x1="362" y1="220" x2="586" y2="315" stroke="#10b981" stroke-width="1" opacity="0.2"/>
  <line x1="362" y1="315" x2="586" y2="188" stroke="#10b981" stroke-width="1" opacity="0.2"/>
  <line x1="362" y1="315" x2="586" y2="315" stroke="#10b981" stroke-width="1" opacity="0.25"/>
  <line x1="362" y1="315" x2="586" y2="450" stroke="#10b981" stroke-width="1" opacity="0.2"/>
  <line x1="362" y1="410" x2="586" y2="315" stroke="#10b981" stroke-width="1" opacity="0.2"/>
  <line x1="362" y1="410" x2="586" y2="450" stroke="#10b981" stroke-width="1" opacity="0.25"/>
  <line x1="614" y1="188" x2="838" y2="258" stroke="#10b981" stroke-width="1" opacity="0.25"/>
  <line x1="614" y1="315" x2="838" y2="258" stroke="#10b981" stroke-width="1" opacity="0.2"/>
  <line x1="614" y1="315" x2="838" y2="380" stroke="#10b981" stroke-width="1" opacity="0.25"/>
  <line x1="614" y1="450" x2="838" y2="380" stroke="#10b981" stroke-width="1" opacity="0.2"/>
  <!-- Dot centers -->
  <circle cx="350" cy="220" r="4" fill="#10b981" opacity="0.7"/>
  <circle cx="350" cy="315" r="4" fill="#10b981" opacity="0.7"/>
  <circle cx="350" cy="410" r="4" fill="#10b981" opacity="0.7"/>
  <circle cx="600" cy="180" r="5" fill="#34d399" opacity="0.8"/>
  <circle cx="600" cy="315" r="6" fill="#34d399" opacity="0.9"/>
  <circle cx="600" cy="450" r="5" fill="#34d399" opacity="0.8"/>
  <circle cx="850" cy="250" r="4" fill="#10b981" opacity="0.7"/>
  <circle cx="850" cy="380" r="4" fill="#10b981" opacity="0.7"/>
  <!-- Grid -->
  <line x1="0" y1="210" x2="1200" y2="210" stroke="#ffffff" stroke-width="0.5" opacity="0.04"/>
  <line x1="0" y1="420" x2="1200" y2="420" stroke="#ffffff" stroke-width="0.5" opacity="0.04"/>
  <line x1="400" y1="0" x2="400" y2="630" stroke="#ffffff" stroke-width="0.5" opacity="0.04"/>
  <line x1="800" y1="0" x2="800" y2="630" stroke="#ffffff" stroke-width="0.5" opacity="0.04"/>
</svg>
